<?xml version="1.0" encoding="UTF-8" standalone="no"?>
<svg
   viewBox="0 0 993.15033 289.47339"
   version="1.1"
   id="svg1"
   fill="currentColor"
   xml:space="preserve"
   sodipodi:docname="logo-full.svg"
   width="993.15033"
   height="289.47339"
   inkscape:version="1.4.2 (f4327f4, 2025-05-13)"
   inkscape:dataloss="true"
   xmlns:inkscape="http://www.inkscape.org/namespaces/inkscape"
   xmlns:sodipodi="http://sodipodi.sourceforge.net/DTD/sodipodi-0.dtd"
   xmlns="http://www.w3.org/2000/svg"
   xmlns:svg="http://www.w3.org/2000/svg"><sodipodi:namedview
     id="namedview1"
     pagecolor="#505050"
     bordercolor="#eeeeee"
     borderopacity="1"
     inkscape:showpageshadow="0"
     inkscape:pageopacity="0"
     inkscape:pagecheckerboard="0"
     inkscape:deskcolor="#505050"
     inkscape:zoom="0.59040654"
     inkscape:cx="478.48386"
     inkscape:cy="437.8339"
     inkscape:window-width="1920"
     inkscape:window-height="1057"
     inkscape:window-x="1912"
     inkscape:window-y="-8"
     inkscape:window-maximized="1"
     inkscape:current-layer="svg1"><inkscape:page
       x="0"
       y="0"
       width="993.15033"
       height="289.47339"
       id="page2"
       margin="0"
       bleed="0" /></sodipodi:namedview><defs
     id="defs1" /><g
     id="layer1"
     transform="matrix(-0.76495896,0,0,0.76495896,388.81132,-51.092803)"
     style="fill:#fffcf1;fill-opacity:1"><g
       id="g50"
       transform="matrix(1.0922782,0,0,1.0922782,-27.637878,-58.943627)"
       style="fill:#fffcf1;fill-opacity:1"><path
         style="fill:#fffcf1;fill-opacity:1;stroke-width:1.10474"
         d="m 179.05014,243.66311 c 0.002,-0.19946 -7.92455,4.36367 -9.82771,5.08681 -1.90314,0.72314 -5.41202,1.53563 -7.79751,1.80551 -4.33723,0.4907 -4.33723,0.4907 -10.21056,7.58487 -17.40038,21.01723 -35.26284,27.61033 -46.74156,17.25249 -7.472175,-6.74255 -6.646265,-14.61197 2.56397,-24.42958 7.92242,-8.44487 19.78775,-24.58324 19.78775,-26.91387 0,-0.30636 -1.04793,-0.3724 -2.32873,-0.14678 -28.157915,4.96033 -45.679055,-1.3357 -45.679055,-16.41423 0,-8.52003 5.11388,-12.37563 18.98815,-14.31607 12.092145,-1.69119 11.626395,-1.5217 9.195915,-3.34647 -11.459725,-8.60381 -13.809085,-20.8464 -5.3641,-27.9524 5.58887,-4.70273 8.49131,-4.36246 44.17598,5.17899 26.50256,7.08631 30.44004,6.71391 35.35774,-3.34405 3.67489,-7.51609 9.71641,-16.19472 13.95884,-20.05183 6.98671,-6.35215 13.52045,-9.24991 37.02577,-16.42115 6.89665,-2.1041 15.6885,-4.79515 19.53745,-5.98012 49.17077,-15.13807 76.70014,-4.95775 164.25356,60.74069 59.69023,44.79042 70.23807,67.83016 74.56687,162.87701 0.92594,20.33066 -2.79564,24.97435 -25.12602,31.35154 -22.27406,6.3611 -46.5768,6.74239 -69.42476,1.08921 -15.41256,-3.81347 -17.83948,-7.16511 -16.16019,-22.31764 1.92547,-17.37379 0.77416,-34.62632 -3.36069,-50.36062 -2.13367,-8.11921 -0.69604,-6.89025 -9.21953,-7.88139 -9.23799,-1.07421 -17.42557,-3.09773 -23.34451,-5.76948 -4.41615,-1.9934 -5.27936,-2.12812 -13.63554,-2.12812 -29.65491,0 -48.59992,-7.18875 -81.37872,-30.87944 -7.75932,-5.60801 -9.72847,-5.55088 -33.18819,0.96285 -26.5888,2.34917 -36.81672,5.86284 -36.62462,-15.27673 z m 260.5764,130.14487 c 18.78093,-1.0557 39.85321,-8.01231 43.06118,-14.21583 2.59579,-5.0197 -1.02516,-56.452 -5.56009,-78.9759 -6.48511,-32.21 -11.40097,-42.4875 -30.0484,-62.82163 -11.63554,-12.68797 -44.42889,-38.51601 -77.34964,-60.92055 -50.84055,-34.60001 -73.72173,-41.08871 -109.46052,-31.04106 -58.21591,16.36688 -60.5084,17.64692 -72.12047,40.2694 -3.60409,7.02145 -8.49155,17.50234 -10.4639,22.43923 -0.7085,1.77343 -3.37207,7.41613 -5.91905,12.53935 -4.63087,9.31495 -4.63087,9.31495 -1.85691,11.89188 5.94469,5.52247 -0.66538,17.28454 -13.5828,24.16944 -5.20802,2.77585 -5.07794,2.46797 -1.87813,4.44555 10.89261,6.73201 26.01969,-4.59544 42.13325,-31.55019 18.7757,-31.40798 20.12176,-33.13832 29.16093,-37.48598 6.3659,-3.06189 12.12468,-4.49625 22.25365,-5.54283 9.09099,-0.93933 14.48847,-2.3613 17.95785,-4.73101 4.53238,-3.09576 9.4471,-0.43575 6.38573,3.45616 -3.59205,4.56654 -10.59044,6.81896 -26.40178,8.49737 -15.43931,1.63892 -23.1704,6.34454 -30.64825,18.65441 -3.21488,5.29227 -3.94424,4.89679 7.19264,3.89996 10.27742,-0.9199 12.3598,-1.67424 14.84604,-5.37797 4.03519,-6.01117 9.26593,-1.92096 5.4818,4.28653 -3.61251,5.92598 -9.20951,7.76909 -27.2678,8.97936 -7.65649,0.51314 -7.65649,0.51314 -11.20156,6.34211 -6.54709,10.765 -6.5445,10.75192 -1.64397,8.32049 10.8983,-5.4072 20.62577,-6.74346 56.94754,-7.82286 24.52242,-0.72875 22.82915,-0.12018 30.02373,-10.79069 9.20505,-13.65227 16.0048,-18.92577 19.46838,-15.09856 1.7554,1.9397 0.98067,3.61687 -3.11276,6.73856 -6.99065,5.33114 -15.52088,17.96721 -11.759,17.41894 11.29284,-1.64588 18.58025,-2.93463 23.41125,-4.14023 5.15923,-1.28749 5.76965,-1.31067 7.34448,-0.2788 10.32354,6.76425 -20.1315,12.24659 -75.66811,13.62138 -31.77171,0.78649 -40.37213,2.92239 -53.16763,13.20407 -10.07393,8.0948 -13.90447,16.20736 -9.74385,20.63615 1.82145,1.93884 2.72262,2.08698 2.72262,0.44758 0,-7.41395 15.78428,-17.43933 25.99877,-16.51312 5.68174,0.51521 7.41793,2.20505 8.48407,8.25767 0.63591,3.6101 1.01548,4.4093 1.96183,4.13073 32.69032,-9.62271 60.60725,-3.73909 95.34011,20.09338 26.00327,17.84253 32.86056,20.27942 58.66682,20.84856 17.53178,0.38666 18.77637,0.635 18.77637,3.74658 0,2.27531 -1.9083,3.00315 -8.98002,3.42506 -7.82581,0.46689 -7.24671,-0.41027 -5.09538,7.71778 3.79877,14.35239 5.07775,34.96065 3.03328,48.87556 -1.31886,8.9764 -1.07434,11.05476 1.54286,13.11344 4.74785,3.73467 30.01417,8.26357 41.38503,7.41812 1.57637,-0.11721 5.78378,-0.37711 9.34981,-0.57756 z M 326.34345,281.77517 c -6.15644,-5.71999 -34.01884,-22.32264 -42.26216,-25.18319 -8.2749,-2.87149 -30.43023,-5.82989 -30.43023,-4.06335 0,2.05192 30.11339,19.74964 40.84244,24.00322 8.83597,3.50304 34.52944,7.73285 31.84995,5.24332 z m -199.5436,-11.27575 c 5.46364,-2.73335 14.76906,-11.17048 20.62379,-18.69939 2.90645,-3.73755 2.90645,-3.73755 -0.17539,-6.81938 -6.91055,-6.91055 -5.98078,-13.23098 3.50345,-23.81571 5.15317,-5.75111 5.11873,-5.79656 -2.43988,-3.21939 -3.345,1.14051 -7.39965,2.4056 -9.01032,2.81134 -2.11791,0.53349 -3.17711,1.28417 -3.8266,2.71197 -3.59601,7.90522 -14.68079,23.39626 -23.24547,32.48563 -11.52667,12.23282 -1.27131,22.47022 14.57042,14.54493 z m -4.12003,-53.69663 c 12.80957,-1.76922 26.86136,-5.87789 36.07925,-10.5494 3.8128,-1.93226 4.51554,-3.11655 12.41427,-20.92061 3.54389,-7.98811 4.81123,-7.85789 -11.47382,-1.17903 -18.28489,7.49904 -25.10553,9.80347 -35.01271,11.82943 -7.55197,1.54434 -8.32199,1.85243 -9.36863,3.74849 -2.9752,5.38977 -18.193865,9.8997 -27.194515,8.05887 -5.28972,-1.08187 0.1328,7.37946 5.91863,9.23545 3.57782,1.14769 19.617005,1.02268 28.637525,-0.2232 z m 8.79768,-29.35473 c 6.34569,-1.8389 15.56891,-5.27464 22.41218,-8.34874 3.77782,-1.69704 3.77782,-1.69704 -6.4488,-4.47289 -39.51002,-10.72434 -40.81935,-10.88785 -42.75355,-5.3394 -4.06971,11.67438 11.875,22.48327 26.79017,18.16103 z"
         id="path1" /><path
         style="fill:#fffcf1;fill-opacity:1;stroke-width:1.243"
         d="m 112.70101,425.77152 c -2.01705,-9.34373 -9.33478,-16.25489 -19.171805,-18.10659 -5.72374,-1.07741 -5.41624,-1.85726 1.08636,-2.75517 8.315815,-1.1483 16.158865,-8.8888 18.095215,-17.8586 1.1912,-5.51808 1.91311,-5.88343 2.67051,-1.35154 1.68491,10.08161 11.24229,19.52241 19.8051,19.56348 4.24481,0.0205 5.37205,1.36242 1.63562,1.94736 -11.60251,1.81645 -19.57106,8.95886 -21.34446,19.13154 -0.84463,4.84514 -1.64286,4.68112 -2.77654,-0.57048 z"
         id="path1-6" /><path
         style="fill:#fffcf1;fill-opacity:1;stroke-width:3.21371"
         d="m 199.7961,421.74692 c -5.10109,-24.69703 -23.60743,-42.96434 -48.48495,-47.85869 -14.47516,-2.84783 -13.69751,-4.90904 2.7474,-7.2824 21.0304,-3.03514 40.8653,-23.49457 45.76223,-47.20326 3.01253,-14.58516 4.83821,-15.55084 6.75363,-3.57234 4.26114,26.64739 28.43145,51.60096 50.08657,51.70955 10.73505,0.0541 13.58573,3.60111 4.13645,5.14723 -29.34242,4.80113 -49.49468,23.67971 -53.97954,50.56785 -2.13608,12.80646 -4.15474,12.37295 -7.02179,-1.50794 z"
         id="path1-6-1" /><path
         style="fill:#fffcf1;fill-opacity:1;stroke-width:1.73304"
         d="m 123.56008,354.46082 c -2.81223,-13.02735 -13.01489,-22.66313 -26.729985,-25.24484 -7.98024,-1.50217 -7.5515,-2.58944 1.51464,-3.84136 11.594185,-1.601 22.529255,-12.39306 25.228965,-24.89908 1.66081,-7.69349 2.66731,-8.20287 3.72331,-1.88436 2.34918,14.05614 15.67441,27.21881 27.61297,27.2761 5.91829,0.0286 7.4899,1.89954 2.28044,2.71507 -16.17661,2.53256 -27.28666,12.49075 -29.75919,26.67387 -1.17762,6.75525 -2.29052,6.52657 -3.87115,-0.7954 z"
         id="path1-6-9" /><path
         style="fill:#fffcf1;fill-opacity:1;stroke-width:1.10474"
         d="m 279.27559,331.93186 c -5.11197,-2.22575 -7.12331,-7.73464 -4.67244,-12.79744 4.40992,-9.1097 17.98374,-5.98283 17.98374,4.14272 0,6.97656 -6.88473,11.45286 -13.3113,8.65472 z m 5.48189,-6.17206 c 3.02392,-1.61835 0.90743,-6.28182 -2.46663,-5.43498 -2.27211,0.57025 -2.89103,2.39566 -1.52115,4.48636 1.22779,1.87387 1.94165,2.04368 3.98778,0.94862 z"
         id="path1-2" /><path
         style="fill:#fffcf1;fill-opacity:1;stroke-width:1.10474"
         d="m 251.63849,460.41511 c -9.74186,-4.3664 -10.42614,-18.22508 -1.14123,-23.11315 9.09352,-4.7873 19.05459,1.08601 19.05459,11.23511 0,9.48591 -9.37743,15.70393 -17.91336,11.87804 z m 7.85344,-5.82204 c 5.44649,-2.58452 5.07837,-10.60171 -0.57242,-12.46664 -7.84704,-2.58975 -12.12697,9.23011 -4.5376,12.53144 2.8354,1.23337 2.36167,1.23938 5.11002,-0.0648 z"
         id="path1-1" /><path
         style="fill:#fffcf1;fill-opacity:1;stroke-width:1.10474"
         d="m 34.423294,353.83354 c -5.11197,-2.22575 -7.12331,-7.73464 -4.67244,-12.79744 4.40992,-9.1097 17.98374,-5.98283 17.98374,4.14272 0,6.97656 -6.88473,11.45286 -13.3113,8.65472 z m 5.48189,-6.17206 c 3.02392,-1.61835 0.90743,-6.28182 -2.46663,-5.43498 -2.27211,0.57025 -2.89103,2.39566 -1.52115,4.48636 1.22779,1.87387 1.94165,2.04368 3.98778,0.94862 z"
         id="path1-2-2" /></g></g><path
     d="m 402.32657,253.77092 c 0,3.445 0.51675,4.4785 3.1005,6.37325 2.58375,1.89475 3.445,2.067 4.823,0.86125 1.20575,-1.0335 1.7225,-1.0335 2.58375,0.17225 0.689,1.378 0.86125,1.378 1.0335,0 0,-0.86125 0.51675,-0.3445 1.0335,1.20575 1.20575,3.1005 4.99525,3.96175 7.06225,1.55025 0.51675,-0.689 2.4115,-6.71775 4.30625,-13.26325 4.4785,-16.36375 10.50725,-32.55525 16.70825,-44.95725 l 2.58375,-5.1675 11.3685,-0.17225 c 24.804,-0.51675 44.61275,-9.646 66.31625,-30.48825 23.426,-22.737 43.7515,-58.04825 49.9525,-87.330745 3.96175,-18.2585 2.92825,-25.8375 -4.134,-32.55525 -7.579,-7.40675 -13.4355,-12.0575 -16.536,-13.26325 -3.96175,-1.378 -12.22975,0.86125 -18.2585,5.33975 -8.957,6.5455 -22.56475,21.359 -33.761,36.8615 -6.37325,8.6125 -12.22975,16.708246 -13.26325,18.086246 -1.0335,1.378 0,-1.20575 2.4115,-5.684246 27.73225,-51.84725 28.07675,-52.88075 26.00975,-57.187 -0.51675,-1.378 -1.89475,-2.58375 -2.756,-2.58375 -0.86125,0 -1.55025,-0.51675 -1.55025,-1.0335 0,-0.689 -0.3445,-0.86125 -0.86125,-0.689 -0.51675,0.3445 -1.378,-0.51675 -2.067,-1.89475 -2.23925,-4.823 -7.40675,-2.4115 -16.01925,7.75125 -14.29675,16.36375 -41.34,63.387996 -54.7755,95.426495 -4.30625,10.16275 -4.823,10.85175 -10.85175,15.158 -14.469,10.335 -18.9475,23.59825 -11.713,34.27775 2.58375,3.7895 2.58375,4.134 1.20575,8.78475 -6.71775,21.53125 -13.95225,55.12 -13.95225,64.4215 z m 124.19225,-100.594 c -1.0335,1.0335 -2.23925,2.067 -2.4115,2.067 -0.3445,0 0.3445,-1.0335 1.378,-2.067 1.0335,-1.20575 2.067,-2.067 2.4115,-2.067 0.17225,0 -0.3445,0.86125 -1.378,2.067 z m 11.54075,-16.01925 c -4.4785,6.89 -9.9905,13.95225 -8.44025,10.85175 0.51675,-0.86125 2.4115,-3.7895 4.134,-6.37325 5.33975,-7.40675 15.5025,-25.66525 19.80875,-35.4835 2.23925,-4.99525 4.134,-8.784749 4.30625,-8.612499 1.378,1.378 -11.19625,26.354249 -19.80875,39.617499 z m 23.59825,-62.009995 c -1.55025,10.50725 -10.85175,33.588745 -20.15325,50.124745 -2.92825,4.99525 -5.512,9.12925 -5.8565,9.12925 -0.17225,0 2.4115,-5.1675 5.8565,-11.713 7.06225,-13.4355 14.29675,-30.832745 18.2585,-43.406995 1.7225,-6.201 2.4115,-7.40675 1.89475,-4.134 z m -4.4785,2.58375 c 0,-1.20575 0.3445,-1.55025 0.689,-0.689 0.17225,0.86125 0.17225,1.7225 -0.17225,2.067 -0.3445,0.3445 -0.51675,-0.3445 -0.51675,-1.378 z m -1.55025,5.8565 c 0.689,-2.067 1.378,-2.92825 1.378,-2.067 0,0.86125 -0.689,2.92825 -1.378,4.65075 -1.89475,3.96175 -1.89475,2.067 0,-2.58375 z m -1.89475,6.5455 c 0.17225,0.3445 -1.0335,4.134 -2.92825,8.784746 -1.7225,4.650749 -3.61725,8.612499 -3.96175,8.956999 -0.51675,0.17225 0.86125,-3.61725 2.92825,-8.784749 1.89475,-5.167496 3.7895,-9.129246 3.96175,-8.956996 z m -36.68925,-17.05275 c 1.0335,-1.0335 2.23925,-2.067 2.4115,-2.067 0.3445,0 -0.3445,1.0335 -1.378,2.067 -1.0335,1.20575 -2.067,2.067 -2.23925,2.067 -0.3445,0 0.17225,-0.86125 1.20575,-2.067 z m -2.756,4.134 c 1.55025,-1.378 1.7225,-1.378 0.3445,0.3445 -1.378,1.7225 -2.23925,2.23925 -2.23925,1.378 0,-0.17225 0.86125,-1.0335 1.89475,-1.7225 z m -18.603,34.966745 c 14.98575,-21.875745 37.37825,-45.646245 49.09125,-52.363995 7.9235,-4.4785 8.6125,-4.4785 8.268,-0.17225 -1.0335,10.6795 -11.3685,38.411746 -22.22025,59.426245 -15.847,30.83275 -38.9285,54.7755 -61.14875,63.56025 -8.44025,3.27275 -16.536,4.99525 -16.536,3.445 0,-1.55025 14.469,-28.938 16.1915,-30.83275 1.20575,-1.20575 2.4115,-1.0335 8.78475,1.89475 6.71775,3.1005 9.47375,3.445 9.47375,1.20575 0,-0.51675 -3.1005,-3.1005 -6.89,-5.8565 -3.61725,-2.58375 -6.71775,-5.1675 -6.71775,-5.512 0,-1.378 13.4355,-23.0815 21.7035,-34.7945 z m -22.737,18.77525 c 0,-0.3445 0.86125,-1.0335 1.89475,-1.89475 1.55025,-1.20575 1.55025,-1.20575 0.3445,0.3445 -1.378,1.89475 -2.23925,2.4115 -2.23925,1.55025 z m 37.206,-96.804495 c 0.17225,0.17225 -2.58375,4.99525 -6.02875,10.50725 -11.88525,18.9475 -30.83275,52.708496 -40.9955,73.206245 -5.512,11.024 -10.335,20.3255 -10.50725,20.67 -3.445,3.445 14.469,-32.55525 28.5935,-57.531495 12.7465,-22.56475 28.249,-47.541 28.938,-46.852 z m -4.99525,1.55025 c 1.20575,-1.7225 2.4115,-3.1005 2.756,-3.1005 0.3445,0 -0.51675,1.378 -1.7225,3.1005 -1.20575,1.7225 -2.4115,3.1005 -2.756,3.1005 -0.17225,0 0.51675,-1.378 1.7225,-3.1005 z m -21.0145,32.7275 c 7.75125,-13.26325 17.5695,-28.5935 18.43075,-28.5935 0.17225,0 -2.067,3.96175 -4.99525,8.6125 -3.1005,4.65075 -9.47375,15.158 -14.1245,23.426 -4.823,8.09575 -8.78475,14.8135 -9.12925,14.8135 -0.51675,0 0.689,-2.4115 9.81825,-18.2585 z m -10.335,19.6365 c 0.17225,0.3445 0,1.20575 -0.51675,1.89475 -0.689,0.689 -4.4785,7.923496 -8.6125,15.846995 -7.9235,15.33025 -8.268,15.847 -8.268,14.8135 0,-2.23925 16.536,-33.244245 17.39725,-32.555245 z m -18.603,34.449995 c 0.689,-0.3445 0.86125,0 0.51675,0.86125 -0.689,1.89475 -1.378,2.23925 -1.378,0.689 0,-0.51675 0.3445,-1.20575 0.86125,-1.55025 z m -4.30625,9.3015 c 1.55025,-3.1005 2.92825,-5.512 3.1005,-5.33975 0.17225,0.3445 -0.86125,2.92825 -2.23925,5.68425 -1.55025,2.92825 -2.92825,5.33975 -3.27275,5.33975 -0.17225,0 0.86125,-2.58375 2.4115,-5.68425 z m -6.5455,27.04325 c -0.86125,2.23925 -2.58375,6.89 -3.7895,10.335 -3.1005,8.6125 -7.06225,17.914 -7.06225,16.536 0,-2.067 9.3015,-27.04325 11.024,-29.11025 1.20575,-1.55025 1.20575,-1.0335 -0.17225,2.23925 z m -4.65075,0 c 0.51675,-0.3445 0.689,0 0.3445,1.0335 -0.689,1.7225 -1.378,2.067 -1.378,0.51675 0,-0.51675 0.51675,-1.20575 1.0335,-1.55025 z m -3.61725,8.78475 c 0.51675,-1.378 1.20575,-3.27275 1.7225,-4.134 0.689,-1.0335 0.689,-0.689 0.3445,1.0335 -0.51675,1.378 -1.20575,3.27275 -1.7225,4.134 -0.689,1.0335 -0.689,0.86125 -0.3445,-1.0335 z m -3.96175,11.3685 c 0.3445,-1.378 1.20575,-3.96175 2.067,-5.68425 1.0335,-2.4115 1.20575,-2.58375 0.689,-0.51675 -0.3445,1.55025 -1.20575,3.96175 -2.067,5.68425 -1.0335,2.58375 -1.20575,2.756 -0.689,0.51675 z m -1.7225,4.65075 c 0.17225,-1.20575 0.3445,-1.378 0.689,-0.689 0.3445,0.86125 0.17225,1.7225 -0.17225,2.067 -0.3445,0.3445 -0.51675,-0.3445 -0.51675,-1.378 z m 0.17225,11.54075 c 0.51675,-0.51675 0.3445,0.51675 -0.3445,2.4115 -0.51675,1.7225 -1.378,3.27275 -1.55025,3.27275 -0.689,0 0.689,-4.4785 1.89475,-5.68425 z m -8.6125,-30.14375 c 0.689,-0.3445 0.86125,0 0.51675,1.0335 -0.689,1.7225 -1.378,2.067 -1.378,0.51675 0,-0.51675 0.3445,-1.20575 0.86125,-1.55025 z m 1.55025,39.962 c 1.55025,-5.33975 3.27275,-10.16275 3.7895,-10.6795 0.3445,-0.51675 -0.86125,4.30625 -2.756,10.6795 -1.89475,6.37325 -3.7895,12.0575 -4.134,12.402 -0.3445,0.3445 -0.51675,0 -0.17225,-0.86125 0.17225,-0.86125 1.7225,-6.02875 3.27275,-11.54075 z m -5.1675,-36.8615 c 0.3445,-1.7225 1.20575,-3.61725 1.7225,-4.134 0.51675,-0.51675 0.51675,0.689 -0.17225,2.58375 -1.55025,4.65075 -2.58375,5.512 -1.55025,1.55025 z M 597.486,100.29617 c 0.86125,0 1.55025,0.51675 1.55025,1.20575 0,0.51675 0.3445,0.689 1.0335,0.3445 0.689,-0.51675 1.0335,0 0.86125,1.20575 0,1.0335 0,2.23925 0,2.756 0,0.3445 1.0335,0.689 2.23925,0.689 2.23925,0 16.36375,-12.918745 18.603,-16.880495 1.20575,-2.23925 1.0335,-2.92825 -0.689,-4.823 -3.445,-3.61725 -7.579,-4.30625 -13.95225,-2.067 -6.37325,2.067 -12.402,7.9235 -12.402,11.713 0,3.617246 1.0335,5.856495 2.756,5.856495 z m 12.7465,-8.267995 c 0.3445,0 -0.86125,1.20575 -2.756,2.58375 -1.7225,1.550246 -3.7895,3.444996 -4.30625,4.478496 -0.51675,1.033499 -1.0335,1.205749 -1.0335,0.51675 0,-1.20575 6.71775,-7.578996 8.09575,-7.578996 z m -7.40675,3.100496 2.92825,-2.583746 -2.58375,3.100496 c -1.55025,1.7225 -2.756,3.27275 -2.92825,3.61725 -0.17225,0.17225 -0.17225,-0.17225 -0.17225,-0.689 0,-0.51675 1.20575,-2.067 2.756,-3.445 z M 591.285,128.71742 c -0.51675,-0.51675 -3.7895,4.99525 -3.7895,6.37325 0,0.3445 0.17225,0.51675 0.51675,0.51675 0.86125,0 3.7895,-6.37325 3.27275,-6.89 z m 40.651,15.158 c -0.86125,0.51675 -1.7225,0.86125 -2.067,0.51675 -0.17225,-0.17225 -1.20575,0.3445 -1.89475,1.378 -1.378,1.7225 -1.378,1.7225 0.3445,0.3445 2.4115,-1.89475 2.23925,-0.17225 -0.3445,3.1005 -1.378,1.55025 -2.067,1.89475 -1.55025,0.689 0.17225,-1.0335 0.3445,-1.7225 0.17225,-1.7225 -0.3445,0 -15.158,19.6365 -28.42125,37.37825 -7.579,10.16275 -13.78,15.847 -19.11975,17.05275 -2.58375,0.689 -2.92825,0.3445 -3.445,-2.756 -0.86125,-4.823 0.86125,-14.64125 5.1675,-26.69875 6.02875,-17.5695 6.201,-18.08625 18.77525,-41.34 5.512,-9.9905 5.68425,-12.0575 1.55025,-14.469 -1.7225,-1.0335 -3.445,-2.756 -3.7895,-3.7895 -0.86125,-2.756 -4.4785,-2.23925 -7.75125,1.378 -6.5455,6.89 -19.46425,32.21075 -24.115,47.1965 -4.30625,13.60775 -5.33975,23.0815 -3.445,30.83275 1.89475,7.40675 2.4115,8.09575 9.3015,13.4355 8.78475,7.06225 15.33025,4.99525 25.32075,-7.579 4.823,-6.201 16.01925,-22.90925 22.22025,-33.072 1.55025,-2.58375 5.33975,-8.78475 8.6125,-13.95225 3.1005,-4.99525 5.1675,-8.6125 4.4785,-7.9235 z m -52.19175,11.54075 c -0.86125,1.378 -1.55025,2.067 -1.55025,1.55025 0,-0.689 0.689,-2.23925 1.55025,-3.61725 0.86125,-1.55025 1.55025,-2.23925 1.55025,-1.55025 0,0.51675 -0.689,2.067 -1.55025,3.61725 z m 3.61725,-8.268 c -1.55025,3.1005 -2.067,3.61725 -2.067,2.4115 0,-0.51675 0.689,-1.89475 1.55025,-3.1005 1.55025,-1.89475 1.55025,-1.89475 0.51675,0.689 z m -13.95225,28.42125 c 1.89475,-7.75125 6.201,-19.46425 10.50725,-28.42125 4.99525,-10.6795 13.4355,-25.66525 14.98575,-26.69875 0.51675,-0.17225 0,1.20575 -1.20575,3.27275 -1.20575,2.067 -2.067,3.96175 -1.7225,4.30625 0.3445,0.3445 1.378,-0.86125 2.23925,-2.58375 0.86125,-1.7225 2.067,-3.445 2.756,-3.96175 0.689,-0.3445 0,1.378 -1.55025,3.7895 -1.55025,2.58375 -4.4785,7.75125 -6.5455,11.713 -2.067,3.7895 -3.96175,6.71775 -4.30625,6.37325 -0.17225,-0.17225 0.3445,-1.55025 1.378,-3.1005 0.86125,-1.378 1.55025,-3.27275 1.20575,-3.96175 -0.689,-1.89475 -9.47375,17.225 -13.78,29.9715 -3.7895,11.3685 -5.33975,15.33025 -3.96175,9.3015 z m 6.71775,-12.91875 c 0.51675,-0.86125 1.0335,-1.0335 1.0335,-0.51675 0,0.51675 -0.51675,1.7225 -1.0335,2.58375 -0.51675,0.86125 -1.0335,1.0335 -1.0335,0.51675 0,-0.51675 0.51675,-1.7225 1.0335,-2.58375 z m 37.206,6.71775 c -5.512,7.40675 -6.37325,7.40675 -1.20575,0 2.23925,-3.1005 4.30625,-5.68425 4.823,-5.68425 0.3445,0 -1.20575,2.58375 -3.61725,5.68425 z m 12.0575,-17.05275 c -1.7225,2.92825 -7.75125,10.50725 -7.75125,9.81825 0,-1.0335 6.201,-9.646 7.40675,-10.50725 0.86125,-0.51675 1.0335,-0.17225 0.3445,0.689 z m 65.62739,-81.301995 c -4.99525,0.3445 -8.957,0.3445 -8.78475,-0.17225 0.17225,-0.3445 2.4115,-4.823 5.1675,-9.9905 2.58375,-5.1675 5.33975,-11.19625 6.02875,-13.4355 1.378,-4.134 1.378,-4.134 -2.4115,-7.40675 -2.067,-1.89475 -3.7895,-3.7895 -3.7895,-4.4785 0,-2.58375 -4.134,-1.0335 -7.40675,2.756 -1.89475,2.067 -8.6125,12.402 -14.98575,22.737 -12.7465,21.359 -11.024,19.981 -26.871,22.22025 -13.60775,1.89475 -22.90925,-1.20575 -28.249,-9.47375 -3.61725,-5.512 -6.201,-5.512 -5.33975,-0.17225 1.0335,5.8565 9.646,17.914 15.33025,21.0145 4.823,2.583746 14.1245,3.444996 21.53125,1.894746 l 3.27275,-0.86125 -11.3685,23.081499 c -12.7465,25.8375 -16.536,34.7945 -20.49775,49.43575 -3.1005,11.713 -3.7895,28.07675 -1.378,34.7945 1.378,4.134 7.75125,12.0575 9.646,12.0575 0.51675,0 2.23925,1.0335 3.61725,2.067 1.55025,1.20575 4.134,2.23925 5.8565,2.23925 6.201,0 19.80875,-17.05275 32.7275,-41.16775 1.89475,-3.445 2.756,-5.33975 1.89475,-4.134 -0.86125,1.0335 -1.89475,2.4115 -2.067,3.1005 -0.17225,0.51675 -0.689,0.689 -1.20575,0.3445 -0.3445,-0.3445 0.17225,-1.89475 1.0335,-3.61725 l 1.7225,-2.92825 -1.89475,2.58375 c -11.54075,15.33025 -22.22025,27.56 -28.938,32.55525 l -5.1675,3.96175 -0.3445,-3.61725 c -0.17225,-2.067 0.86125,-8.6125 2.23925,-14.469 6.02875,-24.97625 14.64125,-47.02425 32.89975,-84.57475 l 10.16275,-21.014495 5.1675,-1.378 c 23.94275,-7.2345 41.85675,-6.37325 46.5075,2.067 1.378,2.58375 1.55025,2.756 1.55025,0.51675 0.17225,-9.9905 -16.70825,-17.74175 -35.65575,-16.536 z m -31.3495,108.172995 c 1.55025,-1.89475 1.55025,-1.89475 0.3445,0.51675 -1.378,3.27275 -1.89475,3.7895 -1.89475,2.58375 0,-0.689 0.689,-2.067 1.55025,-3.1005 z m -39.962,-8.268 c 0.51675,-1.20575 0.86125,-1.378 0.86125,-0.51675 0,0.86125 -0.51675,2.756 -0.86125,4.134 -0.689,2.067 -0.86125,2.23925 -0.86125,0.51675 0,-1.0335 0.3445,-2.92825 0.86125,-4.134 z m -2.067,8.268 c 0,-1.20575 0.3445,-1.55025 0.689,-0.689 0.3445,0.86125 0.17225,1.7225 -0.17225,2.067 -0.3445,0.3445 -0.51675,-0.3445 -0.51675,-1.378 z m 2.067,8.78475 c -1.0335,5.512 -1.89475,8.957 -2.067,7.75125 -0.17225,-4.30625 3.1005,-19.80875 6.201,-29.9715 3.27275,-10.335 6.201,-17.74175 13.26325,-32.7275 13.091,-28.249 12.402,-26.5265 10.6795,-25.493 -0.689,0.3445 -0.86125,0 -0.3445,-1.0335 0.3445,-1.0335 0.86125,-1.378 1.20575,-0.51675 0.51675,0.51675 2.4115,-2.23925 4.30625,-6.200999 1.89475,-3.96175 3.7895,-7.234496 4.30625,-7.234496 0.3445,0 -4.30625,10.162745 -10.16275,22.564745 -12.402,25.493 -18.77525,40.13425 -22.737,53.742 -1.55025,5.1675 -3.7895,13.78 -4.65075,19.11975 z m 34.1055,-80.44075 c -12.0575,24.804 -21.0145,45.474 -25.32075,58.73725 -5.33975,16.70825 -5.8565,17.914 -4.99525,13.4355 1.20575,-7.2345 8.957,-28.938 16.01925,-44.61275 7.75125,-17.05275 21.7035,-44.957245 22.22025,-44.440495 0.17225,0.17225 -3.445,7.751246 -7.9235,16.880495 z m 32.89975,-61.837745 c 0.3445,0 -0.51675,1.89475 -1.55025,4.134 -1.20575,2.4115 -2.4115,4.30625 -2.756,4.30625 -0.17225,0 0.51675,-1.89475 1.7225,-4.30625 1.0335,-2.23925 2.23925,-4.134 2.58375,-4.134 z m -12.57425,23.94275 c -2.23925,4.4785 -3.61725,6.201 -3.61725,4.823 0,-0.689 5.512,-9.9905 5.8565,-9.9905 0.3445,0 -0.689,2.23925 -2.23925,5.1675 z m -6.89,5.8565 c -1.0335,0.689 -0.17225,-1.20575 9.12925,-17.5695 4.65075,-8.09575 10.335,-17.05275 9.646,-14.8135 -0.17225,0.689 -4.30625,7.9235 -9.12925,16.36375 -4.65075,8.44025 -9.12925,15.67475 -9.646,16.01925 z m 12.7465,-16.1915 c -1.20575,2.23925 -2.4115,4.134 -2.756,4.134 -0.17225,0 0.51675,-1.89475 1.7225,-4.134 1.0335,-2.4115 2.23925,-4.134 2.58375,-4.134 0.3445,0 -0.51675,1.7225 -1.55025,4.134 z m 93.87636,89.569995 -3.445,3.1005 2.23925,-3.27275 c 1.378,-1.89475 1.89475,-3.445 1.55025,-3.445 -0.51675,0 -7.75125,9.3015 -16.1915,20.49775 -8.44025,11.3685 -17.74175,22.90925 -20.67,25.8375 -5.68425,5.33975 -10.6795,8.957 -11.54075,8.268 -0.17225,-0.3445 0,-3.7895 0.3445,-7.75125 0.86125,-7.75125 3.27275,-14.469 13.78,-37.5505 3.7895,-8.268 6.89,-16.36375 6.89,-17.914 0,-1.55025 -1.0335,-3.445 -2.58375,-4.65075 -1.7225,-1.378 -2.4115,-2.756 -1.89475,-3.7895 1.20575,-3.1005 -0.689,-6.5455 -7.2345,-13.26325 -7.9235,-8.268 -9.47375,-9.12925 -17.225,-9.12925 -13.091,0 -32.89975,14.1245 -44.61275,31.694 -9.9905,14.98575 -16.01925,34.45 -13.95225,44.95725 1.378,6.37325 5.33975,11.88525 9.646,13.78 1.7225,0.689 3.1005,1.7225 3.1005,2.067 0,1.378 5.68425,4.134 8.268,4.134 4.4785,0 11.19625,-4.65075 21.0145,-14.64125 l 10.16275,-10.16275 v 7.2345 c 0,9.3015 1.89475,13.95225 8.09575,19.292 5.33975,4.823 8.6125,5.512 12.7465,2.756 6.89,-4.65075 19.80875,-21.0145 35.31125,-44.95725 10.16275,-15.847 10.85175,-17.39725 6.201,-13.091 z m -41.6845,3.1005 c 0,0.689 -0.86125,2.756 -1.89475,4.823 -1.20575,1.89475 -2.067,3.1005 -2.067,2.58375 0,-0.689 0.86125,-2.756 2.067,-4.823 1.0335,-1.89475 1.89475,-3.1005 1.89475,-2.58375 z M 686.195,139.05242 c 1.20575,-1.0335 0.86125,-0.3445 -0.689,1.89475 -1.378,1.7225 -2.58375,3.27275 -2.756,3.27275 -0.86125,0 1.7225,-3.7895 3.445,-5.1675 z m -18.2585,37.895 c 0,-4.823 9.646,-27.9045 12.91875,-30.6605 0.689,-0.51675 -0.51675,2.58375 -2.92825,7.06225 -2.23925,4.30625 -5.512,12.0575 -7.06225,16.8805 -1.55025,4.823 -2.92825,7.9235 -2.92825,6.71775 z m 4.99525,-6.89 c 3.96175,-11.3685 12.91875,-27.2155 18.08625,-31.52175 1.55025,-1.55025 1.378,-0.86125 -0.86125,2.067 -1.7225,2.23925 -4.65075,6.5455 -6.5455,9.646 -1.89475,2.92825 -5.512,10.335 -7.9235,16.536 -4.823,11.54075 -6.201,13.26325 -2.756,3.27275 z m 39.78975,-5.8565 c -1.378,1.7225 -2.23925,2.4115 -2.23925,1.55025 0,-0.3445 0.86125,-1.0335 1.89475,-1.89475 1.55025,-1.378 1.55025,-1.20575 0.3445,0.3445 z m -24.28725,17.5695 c -2.4115,2.067 -5.8565,4.65075 -7.40675,5.68425 l -3.1005,1.89475 0.689,-4.65075 c 1.0335,-6.201 9.646,-24.115 16.36375,-33.761 6.71775,-9.47375 15.847,-17.914 24.28725,-22.22025 8.268,-4.134 12.0575,-4.99525 12.0575,-2.756 0,5.512 -31.52175,46.67975 -42.89025,55.809 z m 31.005,-2.4115 c -0.3445,0.3445 -0.51675,-0.3445 -0.51675,-1.378 0,-1.20575 0.3445,-1.55025 0.51675,-0.689 0.3445,0.689 0.3445,1.7225 0,2.067 z m 0.689,-4.99525 c -0.86125,0.86125 1.0335,-5.512 2.92825,-10.16275 2.92825,-6.89 3.27275,-4.99525 0.3445,2.58375 -1.55025,3.96175 -2.92825,7.2345 -3.27275,7.579 z m 3.96175,-4.65075 c 0,-0.51675 0.3445,-1.7225 1.0335,-2.58375 0.51675,-0.86125 0.86125,-1.0335 0.86125,-0.51675 0,0.51675 -0.3445,1.7225 -0.86125,2.58375 -0.689,0.86125 -1.0335,1.0335 -1.0335,0.51675 z m 16.8805,25.66525 c -0.17225,0.3445 -0.689,0.86125 -0.86125,0.86125 -0.17225,0 -0.689,-0.51675 -0.86125,-0.86125 -0.3445,-0.51675 0,-0.86125 0.86125,-0.86125 0.86125,0 1.20575,0.3445 0.86125,0.86125 z m 1.89475,-4.134 c -1.378,1.7225 -2.23925,2.23925 -2.23925,1.378 0,-0.17225 0.86125,-1.0335 1.89475,-1.7225 1.55025,-1.378 1.55025,-1.20575 0.3445,0.3445 z m 21.7035,-30.14375 c -0.689,1.0335 -1.55025,1.89475 -1.7225,1.89475 -0.86125,0 -0.3445,-0.86125 1.378,-2.23925 1.7225,-1.378 1.7225,-1.20575 0.3445,0.3445 z m 5.1675,-7.06225 c -0.86125,1.20575 -1.7225,2.4115 -1.89475,2.58375 0,0.17225 -0.17225,0 -0.17225,-0.689 0,-0.51675 0.86125,-1.7225 1.7225,-2.4115 1.7225,-1.378 1.7225,-1.378 0.3445,0.51675 z m 122.81409,-15.5025 c -2.4115,2.92825 -2.92825,2.23925 -1.0335,-1.378 0.689,-1.20575 0.86125,-1.89475 0.689,-1.7225 -1.20575,1.0335 -13.091,19.46425 -18.77525,28.76575 -11.024,18.2585 -20.49775,29.45475 -29.627,35.31125 -7.06225,4.65075 -9.646,4.30625 -11.19625,-1.20575 -6.201,-20.3255 7.40675,-63.0435 42.20125,-132.632495 9.12925,-18.2585 10.85175,-23.25375 9.12925,-26.5265 -0.689,-1.378 -1.7225,-2.23925 -2.4115,-1.89475 -0.689,0.17225 -2.067,-1.0335 -3.1005,-2.58375 -2.92825,-5.1675 -6.02875,-4.134 -12.0575,3.96175 -4.99525,6.71775 -23.426,42.20125 -31.52175,60.804246 -2.23925,4.995249 -4.4785,8.956999 -4.99525,8.956999 -0.51675,0 -3.27275,-2.4115 -6.201,-5.33975 -4.823,-4.822999 -5.68425,-5.339749 -10.85175,-5.856499 -4.4785,-0.3445 -6.5455,0.17225 -11.19625,2.4115 -18.08625,8.784749 -39.962,40.478749 -47.02425,68.038749 -4.65075,18.2585 -2.067,28.5935 8.6125,35.31125 2.4115,1.378 5.512,3.61725 7.06225,4.65075 4.134,2.92825 10.6795,2.756 14.98575,-0.51675 4.65075,-3.445 14.64125,-15.847 22.3925,-27.9045 l 6.37325,-9.81825 0.689,8.268 c 0.51675,4.4785 1.55025,10.50725 2.58375,13.4355 2.23925,6.201 10.16275,14.469 16.8805,17.914 8.78475,4.4785 13.4355,1.378 26.69875,-17.39725 4.134,-6.02875 10.50725,-14.8135 13.95225,-19.80875 6.02875,-8.44025 22.048,-38.584 17.74175,-33.24425 z m -129.8765,30.6605 c 0,-1.20575 0.3445,-1.55025 0.51675,-0.689 0.3445,0.689 0.3445,1.7225 0,2.067 -0.3445,0.3445 -0.51675,-0.3445 -0.51675,-1.378 z m -1.55025,8.6125 c -0.3445,0.3445 -0.689,-0.3445 -0.51675,-1.378 0,-1.20575 0.17225,-1.378 0.51675,-0.689 0.3445,0.86125 0.3445,1.7225 0,2.067 z m 1.55025,3.445 c -0.17225,-6.89 7.2345,-26.00975 15.33025,-39.78975 5.1675,-8.78475 4.99525,-7.2345 -0.3445,2.58375 -2.58375,4.65075 -6.02875,12.22975 -7.9235,16.70825 -1.7225,4.4785 -3.96175,11.54075 -5.1675,15.5025 -1.0335,4.134 -1.89475,6.37325 -1.89475,4.99525 z m 7.40675,-12.0575 c -1.89475,5.1675 -3.1005,7.75125 -2.756,5.68425 0.86125,-4.4785 5.68425,-16.70825 9.9905,-25.1485 3.96175,-7.9235 13.60775,-22.737 16.536,-25.32075 1.20575,-1.0335 -0.3445,1.7225 -3.445,6.02875 -3.27275,4.4785 -8.268,12.7465 -11.19625,18.77525 -3.1005,5.8565 -7.2345,14.8135 -9.12925,19.981 z m 25.8375,15.33025 c -0.689,1.0335 -1.55025,1.89475 -1.7225,1.89475 -0.86125,0 -0.3445,-0.86125 1.378,-2.23925 1.55025,-1.378 1.7225,-1.20575 0.3445,0.3445 z m 6.201,-8.268 c -0.689,1.0335 -1.55025,1.89475 -1.7225,1.89475 -0.86125,0 -0.3445,-0.86125 1.378,-2.23925 1.7225,-1.378 1.7225,-1.378 0.3445,0.3445 z m -13.95225,7.9235 c -2.92825,2.92825 -7.40675,6.89 -9.81825,8.6125 l -4.30625,3.1005 v -2.92825 c 0,-13.60775 17.5695,-49.78025 32.0385,-65.97175 4.4785,-5.1675 13.26325,-11.54075 14.98575,-11.024 0.51675,0.17225 1.55025,2.4115 2.4115,4.823 1.0335,3.96175 1.0335,5.1675 -1.378,12.402 -3.61725,10.85175 -22.3925,38.9285 -33.93325,50.986 z m 37.5505,-27.73225 c -2.23925,9.81825 -2.756,11.3685 -2.756,9.12925 -0.17225,-2.756 2.92825,-15.847 3.7895,-16.8805 0.51675,-0.51675 0.17225,2.92825 -1.0335,7.75125 z m 3.27275,-2.756 c -0.51675,1.20575 -0.86125,1.55025 -0.86125,0.51675 0,-0.86125 0.3445,-2.58375 0.86125,-3.61725 0.689,-1.378 0.86125,-1.55025 0.86125,-0.51675 0,0.86125 -0.3445,2.4115 -0.86125,3.61725 z m 25.1485,-64.249245 c -2.92825,5.684246 -7.9235,16.880495 -11.024,24.803995 -5.8565,13.95225 -7.9235,18.43075 -6.37325,12.91875 2.58375,-8.268 21.18675,-49.263495 22.22025,-48.402245 0.17225,0.17225 -2.067,4.99525 -4.823,10.6795 z m 23.7705,-46.852 c 0,0.51675 -0.689,1.89475 -1.55025,3.1005 -0.86125,1.20575 -4.99525,8.957 -9.3015,17.225 -4.30625,8.09575 -7.9235,14.469 -7.9235,14.1245 0,-1.20575 9.646,-19.981 14.469,-28.249 2.23925,-4.134 4.30625,-6.89 4.30625,-6.201 z m -20.84225,26.871 c 0.51675,-0.3445 0.689,0.17225 0.3445,1.0335 -0.689,1.7225 -1.378,2.067 -1.378,0.689 0,-0.51675 0.51675,-1.378 1.0335,-1.7225 z m -2.067,4.134 c 0.51675,-0.3445 0.689,0.17225 0.3445,1.0335 -0.689,1.89475 -1.378,2.067 -1.378,0.689 0,-0.51675 0.51675,-1.378 1.0335,-1.7225 z m -2.58375,5.1675 c 1.55025,-1.89475 1.55025,-1.89475 0.51675,0.689 -1.55025,3.1005 -2.067,3.61725 -2.067,2.4115 0,-0.51675 0.689,-1.89475 1.55025,-3.1005 z m -3.61725,7.40675 c 0.51675,-0.3445 0.689,0 0.3445,0.86125 -0.689,1.89475 -1.378,2.23925 -1.378,0.689 0,-0.51675 0.51675,-1.20575 1.0335,-1.55025 z m 3.7895,-2.58375 c 9.47375,-19.6365 11.3685,-24.28725 8.09575,-20.3255 -1.378,1.89475 -1.378,1.7225 0,-1.20575 1.7225,-3.445 3.1005,-4.823 1.89475,-1.89475 -0.17225,0.86125 -0.3445,1.55025 0,1.55025 0.3445,0 2.756,-3.7895 5.33975,-8.6125 2.58375,-4.65075 5.33975,-9.47375 6.37325,-10.6795 0.86125,-1.0335 -0.3445,1.55025 -2.58375,5.8565 -7.2345,12.91875 -24.804,49.607996 -30.14375,62.526745 -5.1675,12.22975 -7.2345,16.536 -7.2345,14.98575 -0.17225,-1.89475 9.12925,-23.426 18.2585,-42.201245 z m -17.914,49.263495 c 0.86125,-1.7225 1.55025,-2.58375 1.55025,-2.067 0,0.51675 -0.689,2.756 -1.55025,4.65075 -0.689,2.067 -1.378,2.92825 -1.378,2.067 0,-0.86125 0.689,-2.92825 1.378,-4.65075 z m -4.4785,14.1245 c 0,-0.86125 0.689,-3.1005 1.378,-4.823 0.86125,-1.7225 1.378,-2.58375 1.378,-2.067 0,0.689 -0.51675,2.756 -1.378,4.823 -0.689,1.89475 -1.378,2.92825 -1.378,2.067 z m 29.627,41.16775 c -1.89475,1.7225 -1.89475,1.7225 -0.51675,-0.3445 0.689,-1.378 1.55025,-2.067 1.89475,-1.89475 0.17225,0.3445 -0.3445,1.378 -1.378,2.23925 z m 9.47375,-12.22975 c -0.689,1.20575 -1.7225,2.23925 -2.23925,2.23925 -0.51675,0 -0.17225,-1.0335 0.86125,-2.23925 1.0335,-1.0335 2.067,-2.067 2.4115,-2.067 0.17225,0 -0.3445,1.0335 -1.0335,2.067 z m 3.445,-5.1675 c -0.689,1.20575 -1.378,2.067 -1.7225,2.067 -0.3445,0 0,-0.86125 0.689,-2.067 0.51675,-1.0335 1.20575,-2.067 1.55025,-2.067 0.3445,0 0,1.0335 -0.51675,2.067 z m 3.61725,-6.37325 c -1.7225,1.7225 -1.7225,1.7225 -0.51675,-0.51675 0.86125,-1.20575 1.7225,-2.067 1.89475,-1.89475 0.3445,0.3445 -0.3445,1.378 -1.378,2.4115 z m 11.3685,-18.08625 c -1.55025,2.58375 -3.27275,4.99525 -3.7895,5.33975 -0.51675,0.3445 0,-0.86125 1.0335,-2.756 1.0335,-1.89475 2.4115,-4.65075 3.27275,-6.02875 0.689,-1.20575 1.378,-2.067 1.7225,-1.89475 0.17225,0.17225 -0.86125,2.58375 -2.23925,5.33975 z m 102.66116,2.58375 -3.445,3.1005 2.23925,-3.27275 c 1.378,-1.89475 1.89475,-3.445 1.55025,-3.445 -0.51675,0 -7.75125,9.3015 -16.1915,20.49775 -8.44025,11.3685 -17.74175,22.90925 -20.67,25.8375 -5.68425,5.33975 -10.6795,8.957 -11.54075,8.268 -0.17225,-0.3445 0,-3.7895 0.3445,-7.75125 0.86125,-7.75125 3.27275,-14.469 13.78,-37.5505 3.7895,-8.268 6.89,-16.36375 6.89,-17.914 0,-1.55025 -1.0335,-3.445 -2.58375,-4.65075 -1.7225,-1.378 -2.4115,-2.756 -1.89475,-3.7895 1.20575,-3.1005 -0.689,-6.5455 -7.2345,-13.26325 -7.9235,-8.268 -9.47375,-9.12925 -17.225,-9.12925 -13.091,0 -32.89975,14.1245 -44.61275,31.694 -9.9905,14.98575 -16.01925,34.45 -13.95225,44.95725 1.378,6.37325 5.33975,11.88525 9.646,13.78 1.7225,0.689 3.1005,1.7225 3.1005,2.067 0,1.378 5.68425,4.134 8.268,4.134 4.4785,0 11.19625,-4.65075 21.0145,-14.64125 L 928.034,177.63642 v 7.2345 c 0,9.3015 1.89475,13.95225 8.09575,19.292 5.33975,4.823 8.6125,5.512 12.7465,2.756 6.89,-4.65075 19.80875,-21.0145 35.31125,-44.95725 10.16275,-15.847 10.85175,-17.39725 6.201,-13.091 z m -41.6845,3.1005 c 0,0.689 -0.86125,2.756 -1.89475,4.823 -1.20575,1.89475 -2.067,3.1005 -2.067,2.58375 0,-0.689 0.86125,-2.756 2.067,-4.823 1.0335,-1.89475 1.89475,-3.1005 1.89475,-2.58375 z m -45.99075,-12.91875 c 1.20575,-1.0335 0.86125,-0.3445 -0.689,1.89475 -1.378,1.7225 -2.58375,3.27275 -2.756,3.27275 -0.86125,0 1.7225,-3.7895 3.445,-5.1675 z m -18.2585,37.895 c 0,-4.823 9.646,-27.9045 12.91875,-30.6605 0.689,-0.51675 -0.51675,2.58375 -2.92825,7.06225 -2.23925,4.30625 -5.512,12.0575 -7.06225,16.8805 -1.55025,4.823 -2.92825,7.9235 -2.92825,6.71775 z m 4.99525,-6.89 c 3.96175,-11.3685 12.91875,-27.2155 18.08625,-31.52175 1.55025,-1.55025 1.378,-0.86125 -0.86125,2.067 -1.7225,2.23925 -4.65075,6.5455 -6.5455,9.646 -1.89475,2.92825 -5.512,10.335 -7.9235,16.536 -4.823,11.54075 -6.201,13.26325 -2.756,3.27275 z m 39.78975,-5.8565 c -1.378,1.7225 -2.23925,2.4115 -2.23925,1.55025 0,-0.3445 0.86125,-1.0335 1.89475,-1.89475 1.55025,-1.378 1.55025,-1.20575 0.3445,0.3445 z m -24.28725,17.5695 c -2.4115,2.067 -5.8565,4.65075 -7.40675,5.68425 l -3.1005,1.89475 0.689,-4.65075 c 1.0335,-6.201 9.646,-24.115 16.36375,-33.761 6.71775,-9.47375 15.847,-17.914 24.28725,-22.22025 8.268,-4.134 12.0575,-4.99525 12.0575,-2.756 0,5.512 -31.52175,46.67975 -42.89025,55.809 z m 31.005,-2.4115 c -0.3445,0.3445 -0.51675,-0.3445 -0.51675,-1.378 0,-1.20575 0.3445,-1.55025 0.51675,-0.689 0.3445,0.689 0.3445,1.7225 0,2.067 z m 0.689,-4.99525 c -0.86125,0.86125 1.0335,-5.512 2.92825,-10.16275 2.92825,-6.89 3.27275,-4.99525 0.3445,2.58375 -1.55025,3.96175 -2.92825,7.2345 -3.27275,7.579 z m 3.96175,-4.65075 c 0,-0.51675 0.3445,-1.7225 1.0335,-2.58375 0.51675,-0.86125 0.86125,-1.0335 0.86125,-0.51675 0,0.51675 -0.3445,1.7225 -0.86125,2.58375 -0.689,0.86125 -1.0335,1.0335 -1.0335,0.51675 z m 16.8805,25.66525 c -0.17225,0.3445 -0.689,0.86125 -0.86125,0.86125 -0.17225,0 -0.689,-0.51675 -0.86125,-0.86125 -0.3445,-0.51675 0,-0.86125 0.86125,-0.86125 0.86125,0 1.20575,0.3445 0.86125,0.86125 z m 1.89475,-4.134 c -1.378,1.7225 -2.23925,2.23925 -2.23925,1.378 0,-0.17225 0.86125,-1.0335 1.89475,-1.7225 1.55025,-1.378 1.55025,-1.20575 0.3445,0.3445 z m 21.7035,-30.14375 c -0.689,1.0335 -1.55025,1.89475 -1.7225,1.89475 -0.86125,0 -0.3445,-0.86125 1.378,-2.23925 1.7225,-1.378 1.7225,-1.20575 0.3445,0.3445 z m 5.1675,-7.06225 c -0.86125,1.20575 -1.7225,2.4115 -1.89475,2.58375 0,0.17225 -0.17225,0 -0.17225,-0.689 0,-0.51675 0.86125,-1.7225 1.7225,-2.4115 1.7225,-1.378 1.7225,-1.378 0.3445,0.51675 z"
     id="text1"
     style="font-size:172.25px;font-family:'Okinawa Personal Use';-inkscape-font-specification:'Okinawa Personal Use';fill:#fffcf1;stroke-width:0.897136"
     aria-label="Pitada" /></svg>
