<?xml version="1.0" encoding="UTF-8" standalone="no"?>
<svg
   viewBox="0 0 512 512"
   version="1.1"
   id="svg1"
   fill="currentColor"
   xml:space="preserve"
   xmlns="http://www.w3.org/2000/svg"
   ><defs
     id="defs1" /><g
     id="layer1"><g
       id="g50"
       transform="matrix(1.0922782,0,0,1.0922782,-27.637878,-58.943627)"><path
         style="stroke-width:1.10474"
         d="m 179.05014,243.66311 c 0.002,-0.19946 -7.92455,4.36367 -9.82771,5.08681 -1.90314,0.72314 -5.41202,1.53563 -7.79751,1.80551 -4.33723,0.4907 -4.33723,0.4907 -10.21056,7.58487 -17.40038,21.01723 -35.26284,27.61033 -46.74156,17.25249 -7.472175,-6.74255 -6.646265,-14.61197 2.56397,-24.42958 7.92242,-8.44487 19.78775,-24.58324 19.78775,-26.91387 0,-0.30636 -1.04793,-0.3724 -2.32873,-0.14678 -28.157915,4.96033 -45.679055,-1.3357 -45.679055,-16.41423 0,-8.52003 5.11388,-12.37563 18.98815,-14.31607 12.092145,-1.69119 11.626395,-1.5217 9.195915,-3.34647 -11.459725,-8.60381 -13.809085,-20.8464 -5.3641,-27.9524 5.58887,-4.70273 8.49131,-4.36246 44.17598,5.17899 26.50256,7.08631 30.44004,6.71391 35.35774,-3.34405 3.67489,-7.51609 9.71641,-16.19472 13.95884,-20.05183 6.98671,-6.35215 13.52045,-9.24991 37.02577,-16.42115 6.89665,-2.1041 15.6885,-4.79515 19.53745,-5.98012 49.17077,-15.13807 76.70014,-4.95775 164.25356,60.74069 59.69023,44.79042 70.23807,67.83016 74.56687,162.87701 0.92594,20.33066 -2.79564,24.97435 -25.12602,31.35154 -22.27406,6.3611 -46.5768,6.74239 -69.42476,1.08921 -15.41256,-3.81347 -17.83948,-7.16511 -16.16019,-22.31764 1.92547,-17.37379 0.77416,-34.62632 -3.36069,-50.36062 -2.13367,-8.11921 -0.69604,-6.89025 -9.21953,-7.88139 -9.23799,-1.07421 -17.42557,-3.09773 -23.34451,-5.76948 -4.41615,-1.9934 -5.27936,-2.12812 -13.63554,-2.12812 -29.65491,0 -48.59992,-7.18875 -81.37872,-30.87944 -7.75932,-5.60801 -9.72847,-5.55088 -33.18819,0.96285 -26.5888,2.34917 -36.81672,5.86284 -36.62462,-15.27673 z m 260.5764,130.14487 c 18.78093,-1.0557 39.85321,-8.01231 43.06118,-14.21583 2.59579,-5.0197 -1.02516,-56.452 -5.56009,-78.9759 -6.48511,-32.21 -11.40097,-42.4875 -30.0484,-62.82163 -11.63554,-12.68797 -44.42889,-38.51601 -77.34964,-60.92055 -50.84055,-34.60001 -73.72173,-41.08871 -109.46052,-31.04106 -58.21591,16.36688 -60.5084,17.64692 -72.12047,40.2694 -3.60409,7.02145 -8.49155,17.50234 -10.4639,22.43923 -0.7085,1.77343 -3.37207,7.41613 -5.91905,12.53935 -4.63087,9.31495 -4.63087,9.31495 -1.85691,11.89188 5.94469,5.52247 -0.66538,17.28454 -13.5828,24.16944 -5.20802,2.77585 -5.07794,2.46797 -1.87813,4.44555 10.89261,6.73201 26.01969,-4.59544 42.13325,-31.55019 18.7757,-31.40798 20.12176,-33.13832 29.16093,-37.48598 6.3659,-3.06189 12.12468,-4.49625 22.25365,-5.54283 9.09099,-0.93933 14.48847,-2.3613 17.95785,-4.73101 4.53238,-3.09576 9.4471,-0.43575 6.38573,3.45616 -3.59205,4.56654 -10.59044,6.81896 -26.40178,8.49737 -15.43931,1.63892 -23.1704,6.34454 -30.64825,18.65441 -3.21488,5.29227 -3.94424,4.89679 7.19264,3.89996 10.27742,-0.9199 12.3598,-1.67424 14.84604,-5.37797 4.03519,-6.01117 9.26593,-1.92096 5.4818,4.28653 -3.61251,5.92598 -9.20951,7.76909 -27.2678,8.97936 -7.65649,0.51314 -7.65649,0.51314 -11.20156,6.34211 -6.54709,10.765 -6.5445,10.75192 -1.64397,8.32049 10.8983,-5.4072 20.62577,-6.74346 56.94754,-7.82286 24.52242,-0.72875 22.82915,-0.12018 30.02373,-10.79069 9.20505,-13.65227 16.0048,-18.92577 19.46838,-15.09856 1.7554,1.9397 0.98067,3.61687 -3.11276,6.73856 -6.99065,5.33114 -15.52088,17.96721 -11.759,17.41894 11.29284,-1.64588 18.58025,-2.93463 23.41125,-4.14023 5.15923,-1.28749 5.76965,-1.31067 7.34448,-0.2788 10.32354,6.76425 -20.1315,12.24659 -75.66811,13.62138 -31.77171,0.78649 -40.37213,2.92239 -53.16763,13.20407 -10.07393,8.0948 -13.90447,16.20736 -9.74385,20.63615 1.82145,1.93884 2.72262,2.08698 2.72262,0.44758 0,-7.41395 15.78428,-17.43933 25.99877,-16.51312 5.68174,0.51521 7.41793,2.20505 8.48407,8.25767 0.63591,3.6101 1.01548,4.4093 1.96183,4.13073 32.69032,-9.62271 60.60725,-3.73909 95.34011,20.09338 26.00327,17.84253 32.86056,20.27942 58.66682,20.84856 17.53178,0.38666 18.77637,0.635 18.77637,3.74658 0,2.27531 -1.9083,3.00315 -8.98002,3.42506 -7.82581,0.46689 -7.24671,-0.41027 -5.09538,7.71778 3.79877,14.35239 5.07775,34.96065 3.03328,48.87556 -1.31886,8.9764 -1.07434,11.05476 1.54286,13.11344 4.74785,3.73467 30.01417,8.26357 41.38503,7.41812 1.57637,-0.11721 5.78378,-0.37711 9.34981,-0.57756 z M 326.34345,281.77517 c -6.15644,-5.71999 -34.01884,-22.32264 -42.26216,-25.18319 -8.2749,-2.87149 -30.43023,-5.82989 -30.43023,-4.06335 0,2.05192 30.11339,19.74964 40.84244,24.00322 8.83597,3.50304 34.52944,7.73285 31.84995,5.24332 z m -199.5436,-11.27575 c 5.46364,-2.73335 14.76906,-11.17048 20.62379,-18.69939 2.90645,-3.73755 2.90645,-3.73755 -0.17539,-6.81938 -6.91055,-6.91055 -5.98078,-13.23098 3.50345,-23.81571 5.15317,-5.75111 5.11873,-5.79656 -2.43988,-3.21939 -3.345,1.14051 -7.39965,2.4056 -9.01032,2.81134 -2.11791,0.53349 -3.17711,1.28417 -3.8266,2.71197 -3.59601,7.90522 -14.68079,23.39626 -23.24547,32.48563 -11.52667,12.23282 -1.27131,22.47022 14.57042,14.54493 z m -4.12003,-53.69663 c 12.80957,-1.76922 26.86136,-5.87789 36.07925,-10.5494 3.8128,-1.93226 4.51554,-3.11655 12.41427,-20.92061 3.54389,-7.98811 4.81123,-7.85789 -11.47382,-1.17903 -18.28489,7.49904 -25.10553,9.80347 -35.01271,11.82943 -7.55197,1.54434 -8.32199,1.85243 -9.36863,3.74849 -2.9752,5.38977 -18.193865,9.8997 -27.194515,8.05887 -5.28972,-1.08187 0.1328,7.37946 5.91863,9.23545 3.57782,1.14769 19.617005,1.02268 28.637525,-0.2232 z m 8.79768,-29.35473 c 6.34569,-1.8389 15.56891,-5.27464 22.41218,-8.34874 3.77782,-1.69704 3.77782,-1.69704 -6.4488,-4.47289 -39.51002,-10.72434 -40.81935,-10.88785 -42.75355,-5.3394 -4.06971,11.67438 11.875,22.48327 26.79017,18.16103 z"
         id="path1" /><path
         style="stroke-width:1.243"
         d="m 112.70101,425.77152 c -2.01705,-9.34373 -9.33478,-16.25489 -19.171805,-18.10659 -5.72374,-1.07741 -5.41624,-1.85726 1.08636,-2.75517 8.315815,-1.1483 16.158865,-8.8888 18.095215,-17.8586 1.1912,-5.51808 1.91311,-5.88343 2.67051,-1.35154 1.68491,10.08161 11.24229,19.52241 19.8051,19.56348 4.24481,0.0205 5.37205,1.36242 1.63562,1.94736 -11.60251,1.81645 -19.57106,8.95886 -21.34446,19.13154 -0.84463,4.84514 -1.64286,4.68112 -2.77654,-0.57048 z"
         id="path1-6" /><path
         style="stroke-width:3.21371"
         d="m 199.7961,421.74692 c -5.10109,-24.69703 -23.60743,-42.96434 -48.48495,-47.85869 -14.47516,-2.84783 -13.69751,-4.90904 2.7474,-7.2824 21.0304,-3.03514 40.8653,-23.49457 45.76223,-47.20326 3.01253,-14.58516 4.83821,-15.55084 6.75363,-3.57234 4.26114,26.64739 28.43145,51.60096 50.08657,51.70955 10.73505,0.0541 13.58573,3.60111 4.13645,5.14723 -29.34242,4.80113 -49.49468,23.67971 -53.97954,50.56785 -2.13608,12.80646 -4.15474,12.37295 -7.02179,-1.50794 z"
         id="path1-6-1" /><path
         style="stroke-width:1.73304"
         d="m 123.56008,354.46082 c -2.81223,-13.02735 -13.01489,-22.66313 -26.729985,-25.24484 -7.98024,-1.50217 -7.5515,-2.58944 1.51464,-3.84136 11.594185,-1.601 22.529255,-12.39306 25.228965,-24.89908 1.66081,-7.69349 2.66731,-8.20287 3.72331,-1.88436 2.34918,14.05614 15.67441,27.21881 27.61297,27.2761 5.91829,0.0286 7.4899,1.89954 2.28044,2.71507 -16.17661,2.53256 -27.28666,12.49075 -29.75919,26.67387 -1.17762,6.75525 -2.29052,6.52657 -3.87115,-0.7954 z"
         id="path1-6-9" /><path
         style="stroke-width:1.10474"
         d="m 279.27559,331.93186 c -5.11197,-2.22575 -7.12331,-7.73464 -4.67244,-12.79744 4.40992,-9.1097 17.98374,-5.98283 17.98374,4.14272 0,6.97656 -6.88473,11.45286 -13.3113,8.65472 z m 5.48189,-6.17206 c 3.02392,-1.61835 0.90743,-6.28182 -2.46663,-5.43498 -2.27211,0.57025 -2.89103,2.39566 -1.52115,4.48636 1.22779,1.87387 1.94165,2.04368 3.98778,0.94862 z"
         id="path1-2" /><path
         style="stroke-width:1.10474"
         d="m 251.63849,460.41511 c -9.74186,-4.3664 -10.42614,-18.22508 -1.14123,-23.11315 9.09352,-4.7873 19.05459,1.08601 19.05459,11.23511 0,9.48591 -9.37743,15.70393 -17.91336,11.87804 z m 7.85344,-5.82204 c 5.44649,-2.58452 5.07837,-10.60171 -0.57242,-12.46664 -7.84704,-2.58975 -12.12697,9.23011 -4.5376,12.53144 2.8354,1.23337 2.36167,1.23938 5.11002,-0.0648 z"
         id="path1-1" /><path
         style="stroke-width:1.10474"
         d="m 34.423294,353.83354 c -5.11197,-2.22575 -7.12331,-7.73464 -4.67244,-12.79744 4.40992,-9.1097 17.98374,-5.98283 17.98374,4.14272 0,6.97656 -6.88473,11.45286 -13.3113,8.65472 z m 5.48189,-6.17206 c 3.02392,-1.61835 0.90743,-6.28182 -2.46663,-5.43498 -2.27211,0.57025 -2.89103,2.39566 -1.52115,4.48636 1.22779,1.87387 1.94165,2.04368 3.98778,0.94862 z"
         id="path1-2-2" /></g></g></svg>
